<svg xmlns="http://www.w3.org/2000/svg" xmlns:xlink="http://www.w3.org/1999/xlink" id="processonSvg1000" viewBox="84.0 150.0 953.5 689.625" width="953.5" height="689.625"><defs id="ProcessOnDefs1001"><marker id="ProcessOnMarker1022" markerUnits="userSpaceOnUse" orient="auto" markerWidth="16.23606797749979" markerHeight="10.550836550532098" viewBox="-1.0 -1.3763819204711736 16.23606797749979 10.550836550532098" refX="-1.0" refY="3.8990363547948754"><path id="ProcessOnPath1023" d="M12.0 3.8990363547948754L0.0 7.798072709589751V0.0Z" stroke="#323232" stroke-width="2.0" fill="#323232" transform="matrix(1.0,0.0,0.0,1.0,0.0,0.0)"/></marker><marker id="ProcessOnMarker1042" markerUnits="userSpaceOnUse" orient="auto" markerWidth="16.23606797749979" markerHeight="10.550836550532098" viewBox="-1.0 -1.3763819204711736 16.23606797749979 10.550836550532098" refX="-1.0" refY="3.8990363547948754"><path id="ProcessOnPath1043" d="M12.0 3.8990363547948754L0.0 7.798072709589751V0.0Z" stroke="#323232" stroke-width="2.0" fill="#323232" transform="matrix(1.0,0.0,0.0,1.0,0.0,0.0)"/></marker><marker id="ProcessOnMarker1061" markerUnits="userSpaceOnUse" orient="auto" markerWidth="16.23606797749979" markerHeight="10.550836550532098" viewBox="-1.0 -1.3763819204711736 16.23606797749979 10.550836550532098" refX="-1.0" refY="3.8990363547948754"><path id="ProcessOnPath1062" d="M12.0 3.8990363547948754L0.0 7.798072709589751V0.0Z" stroke="#323232" stroke-width="2.0" fill="#323232" transform="matrix(1.0,0.0,0.0,1.0,0.0,0.0)"/></marker><marker id="ProcessOnMarker1073" markerUnits="userSpaceOnUse" orient="auto" markerWidth="16.23606797749979" markerHeight="10.550836550532098" viewBox="-1.0 -1.3763819204711736 16.23606797749979 10.550836550532098" refX="-1.0" refY="3.8990363547948754"><path id="ProcessOnPath1074" d="M12.0 3.8990363547948754L0.0 7.798072709589751V0.0Z" stroke="#323232" stroke-width="2.0" fill="#323232" transform="matrix(1.0,0.0,0.0,1.0,0.0,0.0)"/></marker><marker id="ProcessOnMarker1082" markerUnits="userSpaceOnUse" orient="auto" markerWidth="16.23606797749979" markerHeight="10.550836550532098" viewBox="-1.0 -1.3763819204711736 16.23606797749979 10.550836550532098" refX="-1.0" refY="3.8990363547948754"><path id="ProcessOnPath1083" d="M12.0 3.8990363547948754L0.0 7.798072709589751V0.0Z" stroke="#323232" stroke-width="2.0" fill="#323232" transform="matrix(1.0,0.0,0.0,1.0,0.0,0.0)"/></marker><marker id="ProcessOnMarker1086" markerUnits="userSpaceOnUse" orient="auto" markerWidth="16.23606797749979" markerHeight="10.550836550532098" viewBox="-1.0 -1.3763819204711736 16.23606797749979 10.550836550532098" refX="-1.0" refY="3.8990363547948754"><path id="ProcessOnPath1087" d="M12.0 3.8990363547948754L0.0 7.798072709589751V0.0Z" stroke="#323232" stroke-width="2.0" fill="#323232" transform="matrix(1.0,0.0,0.0,1.0,0.0,0.0)"/></marker></defs><g id="ProcessOnG1002"><path id="ProcessOnPath1003" d="M84.0 150.0H1037.5V839.625H84.0V150.0Z" fill="none"/><g id="ProcessOnG1004"><g id="ProcessOnG1005" transform="matrix(1.0,0.0,0.0,1.0,942.5,719.5)" opacity="1.0"><g id="ProcessOnG1007" transform="matrix(1.0,0.0,0.0,1.0,0.0,0.0)"> <path fill="#00BCF2" d="M24.211,76.971c-0.292-0.031-1.178-0.132-1.968-0.218c-6.654-0.741-12.902-2.787-17.417-5.702 c-1.655-1.069-3.71-3.143-4.316-4.351l-0.453-0.907L0.018,38.084C-0.022,10.667-0.02,10.367,0.28,9.572 c1.37-3.626,8.025-7.083,16.661-8.654C21.065,0.167,23.036,0.007,28.301,0c5.018-0.007,6.369,0.086,10.071,0.69 c4.442,0.724,8.55,1.938,11.701,3.46c3.363,1.624,5.494,3.411,6.438,5.401L57,10.583v27.453c0,26.556-0.011,27.478-0.284,28.21 c-1.405,3.711-7.053,7.219-14.861,9.229c-4.329,1.112-7.087,1.444-12.57,1.508C26.786,77.009,24.502,77.005,24.211,76.971 L24.211,76.971z M47.727,54.17c2.018-0.575,3.495-1.72,3.95-3.05c0.22-0.641,0.251-1.59,0.251-7.362v-6.629h-2.8h-2.8l-0.042,4.047 l-0.039,4.043l-2.964-0.011c-1.628-0.005-3.079-0.056-3.217-0.106c-0.234-0.09-0.257-0.482-0.257-4.037v-3.937l-3.825,0.004 l-3.823,0.005l0.72,0.411l0.719,0.411v3.715c0,4.23,0.101,4.817,1.014,5.881c0.743,0.871,2.288,1.588,3.882,1.809 c0.649,0.093,2.228,0.167,3.505,0.167c1.882,0,2.507-0.058,3.279-0.296c0.523-0.163,0.979-0.271,1.011-0.238 c0.034,0.032-0.021,0.303-0.117,0.598c-0.335,1.013-0.212,0.996-6.474,0.996h-5.647v1.979v1.979l6.4-0.063 C45.807,54.432,46.996,54.379,47.727,54.17L47.727,54.17z M20.536,49.326c0.429-0.218,0.954-0.623,1.167-0.9 c0.213-0.279,1.142-2.168,2.065-4.2c0.923-2.032,1.742-3.759,1.82-3.837c0.086-0.089,0.14,1.676,0.14,4.575v4.72h2.802h2.804V43.33 c0-4.974,0.04-6.354,0.189-6.364c0.149-0.009,0.149-0.026,0-0.088c-0.135-0.054-0.191-0.514-0.192-1.539 c0-1.708-0.252-2.407-1.11-3.161c-1.121-0.983-4.097-1.352-5.575-0.688c-1.527,0.685-1.751,1.076-5.787,10.14 c-0.342,0.769-0.667,1.397-0.722,1.397s-0.966-2.024-2.027-4.498c-2.312-5.396-2.357-5.486-3.03-6.159 c-1.069-1.067-2.322-1.403-4.24-1.136c-1.651,0.229-2.479,0.658-2.913,1.509l-0.341,0.668v8.137v8.136H8.16h2.574v-4.72 c0-2.81,0.056-4.661,0.138-4.575c0.075,0.078,0.83,1.674,1.676,3.546c1.82,4.022,2.11,4.55,2.821,5.089 C16.56,49.933,19.049,50.078,20.536,49.326L20.536,49.326z M32.922,16.248c7.135-0.528,12.777-2.118,14.853-4.188 c0.88-0.879,1.105-1.616,0.768-2.503c-0.861-2.254-5.434-4.088-12.592-5.055c-2.899-0.389-12.167-0.388-15.07,0.002 c-5.632,0.759-9.815,2.118-11.609,3.77c-1.157,1.068-1.378,1.874-0.813,2.98c0.417,0.817,1.202,1.423,2.957,2.283 c2.914,1.427,7.346,2.354,13.252,2.767C26.342,16.423,30.987,16.391,32.922,16.248z"/>  </g><g id="ProcessOnG1008" transform="matrix(1.0,0.0,0.0,1.0,-20.0,83.875)"><text id="ProcessOnText1009" fill="#000000" font-size="13" x="47.5" y="13.325" font-family="微软雅黑" font-weight="normal" font-style="normal" text-decoration="none" family="微软雅黑" text-anchor="middle" size="13">Expedia</text></g></g><g id="ProcessOnG1010" transform="matrix(1.0,0.0,0.0,1.0,544.0,170.0)" opacity="1.0"><g id="ProcessOnG1012" transform="matrix(1.0,0.0,0.0,1.0,0.0,0.0)"> <path fill="#00BCF2" d="M28.061,75.906c-1.961-0.191-5.291-0.809-7.168-1.327c-5.591-1.544-9.482-3.979-10.273-6.424 c-0.093-0.285-0.752-3.464-1.463-7.061l-1.293-6.537l0.298-0.403c0.351-0.472,1.208-0.812,1.542-0.61 c0.124,0.077,0.695,0.507,1.269,0.959c1.246,0.98,3.732,2.237,5.896,2.98c4.588,1.579,9.833,2.339,16.119,2.339 c10.077,0,18.291-2.124,22.802-5.894c0.564-0.472,0.688-0.516,1.104-0.396c0.618,0.177,1.169,0.706,1.169,1.123 c0,0.185-0.533,2.978-1.186,6.207c-0.651,3.23-1.253,6.238-1.34,6.687c-0.704,3.65-7.307,6.971-16.356,8.223 C37.609,75.992,29.867,76.084,28.061,75.906L28.061,75.906z M29.25,54.561c-5.23-0.301-10.854-1.405-14.774-2.9 c-2.893-1.104-5.867-2.919-7.161-4.371c-0.945-1.058-1.729-2.594-1.862-3.643c-0.055-0.438-1.304-7.926-2.776-16.642 C1.206,18.289,0,10.86,0,10.496c0-1.474,1.342-3.226,3.582-4.673c4.147-2.678,11.334-4.6,20.747-5.544 c3.695-0.371,13.593-0.374,17.318,0c10.841,1.075,18.785,3.497,22.45,6.849c1.156,1.055,1.889,2.355,1.902,3.37 c0,0.39-1.173,7.662-2.618,16.161c-1.444,8.498-2.697,15.989-2.784,16.645c-0.224,1.681-0.825,2.85-2.146,4.171 c-3.926,3.933-11.973,6.515-22.104,7.099c-2.821,0.163-4.126,0.161-7.096-0.011L29.25,54.561L29.25,54.561z M34.58,47.104 c4.283-0.696,7.514-3.61,8.566-7.725c0.356-1.387,0.38-3.727,0.059-5.112c-0.781-3.339-3.541-6.31-6.882-7.404 c-1.183-0.389-1.523-0.433-3.262-0.433c-1.613,0-2.13,0.059-3.06,0.348c-5.701,1.773-8.766,7.842-6.805,13.478 C24.823,44.935,29.734,47.891,34.58,47.104L34.58,47.104z M31.168,41.677c-2.913-1.201-4.154-4.254-2.88-7.092 c1.431-3.188,5.657-4.065,8.269-1.718c1.955,1.758,2.305,4.704,0.815,6.881C35.986,41.771,33.374,42.582,31.168,41.677 L31.168,41.677z M37.33,14.258c8.604-0.438,14.709-1.765,16.264-3.537c0.499-0.569,0.531-0.774,0.21-1.394 c-0.624-1.206-4.048-2.409-8.876-3.117c-3.937-0.576-5.747-0.678-11.942-0.678c-6.194,0-8.005,0.102-11.939,0.678 c-4.83,0.708-8.253,1.911-8.878,3.117c-0.32,0.619-0.29,0.824,0.21,1.394C14.537,13.18,26.153,14.825,37.33,14.258z"/>  </g><g id="ProcessOnG1013" transform="matrix(1.0,0.0,0.0,1.0,-20.0,82.875)"><text id="ProcessOnText1014" fill="#000000" font-size="13" x="52.0" y="13.325" font-family="微软雅黑" font-weight="normal" font-style="normal" text-decoration="none" family="微软雅黑" text-anchor="middle" size="13">GitHub</text></g></g><g id="ProcessOnG1015" transform="matrix(1.0,0.0,0.0,1.0,339.5,223.5)" opacity="1.0"><g id="ProcessOnG1017" transform="matrix(1.0,0.0,0.0,1.0,0.0,0.0)"> <path fill="#00BCF2" d="M35.733,74.673c-0.755-0.284-1.95-1.444-17.892-17.389C4.158,43.598,0.693,40.057,0.425,39.483 c-0.791-1.688-0.468-3.608,0.876-5.215c0.385-0.46,5.646-5.731,11.691-11.713L23.984,11.68l4.206,4.206l4.206,4.206l-0.19,0.898 c-0.523,2.465,0.658,5.036,2.85,6.198l0.679,0.36v10.334v10.333l-0.648,0.305c-1.55,0.729-2.848,2.668-2.993,4.469 c-0.229,2.849,1.497,5.259,4.293,5.993c1.235,0.326,1.402,0.329,2.517,0.047c3.484-0.883,5.277-4.307,4.017-7.676 c-0.321-0.86-1.363-2.104-2.211-2.639l-0.561-0.354V38.211c0-5.582,0.05-10.149,0.11-10.149s1.856,1.747,3.99,3.88l3.878,3.88 l-0.17,0.515c-0.244,0.737-0.223,2.318,0.043,3.232c0.485,1.668,2.054,3.221,3.77,3.73c0.566,0.168,1.17,0.221,2.009,0.178 c2.687-0.139,4.657-1.924,5.221-4.729c0.32-1.597-0.404-3.701-1.694-4.917c-1.46-1.376-3.253-1.894-5.034-1.455l-1.011,0.25 l-4.099-4.099l-4.098-4.099l0.188-1.119c0.58-3.461-1.756-6.512-5.132-6.698c-0.589-0.032-1.38,0.019-1.756,0.114l-0.686,0.172 l-4.23-4.238l-4.231-4.239L30.93,4.64c4.298-4.378,4.616-4.601,6.568-4.601c2.195,0,0.808-1.244,19.796,17.768 c13.548,13.565,16.998,17.096,17.281,17.685c0.511,1.058,0.566,2.514,0.14,3.677c-0.313,0.856-0.835,1.394-17.482,18.043 C40.785,73.656,40.038,74.383,39.223,74.68c-1.097,0.399-2.409,0.397-3.489-0.011V74.673z"/>  </g><g id="ProcessOnG1018" transform="matrix(1.0,0.0,0.0,1.0,-20.0,81.875)"><text id="ProcessOnText1019" fill="#000000" font-size="13" x="56.5" y="13.325" font-family="微软雅黑" font-weight="normal" font-style="normal" text-decoration="none" family="微软雅黑" text-anchor="middle" size="13">Travis CI</text></g></g><g id="ProcessOnG1020"><path id="ProcessOnPath1021" d="M414.5 261.0L479.25 261.0L479.25 208.0L528.7639320225002 208.0" stroke="#323232" stroke-width="2.0" stroke-dasharray="none" fill="none" marker-end="url(#ProcessOnMarker1022)"/></g><g id="ProcessOnG1024" transform="matrix(1.0,0.0,0.0,1.0,124.0,545.5)" opacity="1.0"><g id="ProcessOnG1026" transform="matrix(1.0,0.0,0.0,1.0,0.0,0.0)"> <path fill="#00BCF2" d="M54.882,67.819c-4.74-0.699-8.649-2.701-11.939-6.107c-2.801-2.898-4.523-6.15-5.356-10.103 c-0.484-2.298-0.484-5.802,0-8.1c0.833-3.951,2.555-7.205,5.356-10.102c8.111-8.401,21.232-8.401,29.348,0 c2.946,3.051,4.844,6.802,5.527,10.927c0.244,1.461,0.244,4.988,0,6.449c-1.229,7.398-6.637,13.801-13.613,16.116 C61.159,67.91,57.761,68.246,54.882,67.819z M58.802,65.645c1.513-0.77,2.993-2.943,4.029-5.91c0.332-0.953,0.649-1.917,0.704-2.145 l0.099-0.416l-2.126-0.186c-1.17-0.106-2.944-0.191-3.947-0.19c-1.949,0-5.661,0.293-5.837,0.461 c-0.165,0.155,0.874,3.165,1.628,4.716c0.408,0.834,1.037,1.788,1.581,2.388C56.313,65.891,57.53,66.293,58.802,65.645z M52.873,65.241c0-0.041-0.187-0.348-0.415-0.684c-1.005-1.463-2.798-5.761-2.798-6.694c0-0.143-0.089-0.26-0.202-0.26 c-0.38,0-3.095,0.778-4.514,1.291l-1.422,0.516l1.021,1.035c1.927,1.963,4.47,3.579,7.022,4.473 C52.701,65.314,52.873,65.358,52.873,65.241L52.873,65.241z M64.606,64.545c2.405-1.007,4.259-2.258,6.085-4.105l1.021-1.033 l-1.297-0.5c-1.201-0.463-4.183-1.298-4.645-1.303c-0.108,0-0.199,0.117-0.199,0.259c0,0.945-1.938,5.568-2.83,6.759 c-0.212,0.283-0.385,0.552-0.385,0.606C62.356,65.391,63.194,65.136,64.606,64.545L64.606,64.545z M43.036,57.461 c0.826-0.414,2.891-1.111,4.616-1.553c0.795-0.204,1.432-0.436,1.414-0.513c-0.153-0.732-0.532-4.712-0.532-5.612 c0-0.632-0.043-1.265-0.098-1.404c-0.085-0.225-0.648-0.257-4.658-0.257h-4.56l0.09,0.765c0.39,3.308,1.411,6.459,2.754,8.512 C42.354,57.837,42.3,57.833,43.036,57.461L43.036,57.461z M74.006,55.831c0.86-1.701,1.453-3.61,1.767-5.701 c0.133-0.884,0.241-1.696,0.241-1.806c0-0.155-1.019-0.201-4.565-0.201h-4.567l-0.085,1.007c-0.048,0.55-0.175,1.942-0.284,3.091 c-0.107,1.148-0.203,2.366-0.209,2.71l-0.012,0.621l1.962,0.537c1.078,0.296,2.562,0.789,3.294,1.097 C73.111,57.836,72.941,57.93,74.006,55.831L74.006,55.831z M53.978,54.872c2.318-0.227,5.343-0.198,7.893,0.072 c1.192,0.127,2.189,0.206,2.214,0.18c0.099-0.099,0.498-3.586,0.603-5.274l0.111-1.728h-7.174h-7.175l0.092,1.248 c0.209,2.885,0.259,3.392,0.428,4.588l0.177,1.256l0.582-0.09C52.049,55.075,53.062,54.961,53.978,54.872L53.978,54.872z M48.58,44.145c0.049-0.947,0.212-2.473,0.357-3.387c0.146-0.911,0.235-1.695,0.194-1.732c-0.042-0.043-0.74-0.252-1.552-0.47 c-0.814-0.218-2.224-0.686-3.124-1.04c-0.904-0.351-1.683-0.64-1.732-0.64c-0.158,0-1.22,1.694-1.876,2.994 c-0.748,1.491-1.422,3.582-1.609,5l-0.132,1.003h4.689h4.691L48.58,44.145L48.58,44.145z M64.683,44.629 c-0.117-1.489-0.546-4.64-0.678-4.98c-0.074-0.194-0.278-0.224-1.071-0.138c-4.006,0.434-6.624,0.434-10.646,0 c-0.876-0.094-0.995-0.072-1.076,0.197c-0.15,0.496-0.563,3.749-0.635,5.003l-0.069,1.163h7.139h7.136L64.683,44.629L64.683,44.629z M75.829,44.808c-0.17-1.425-0.671-3.203-1.268-4.521c-0.504-1.11-1.876-3.41-2.032-3.41c-0.051,0-0.75,0.263-1.554,0.585 c-0.809,0.327-2.22,0.793-3.139,1.042c-0.916,0.247-1.701,0.481-1.739,0.522c-0.04,0.042,0.038,0.749,0.178,1.574 c0.139,0.822,0.293,2.11,0.343,2.862c0.051,0.753,0.128,1.601,0.174,1.888l0.077,0.522h4.543h4.545L75.829,44.808L75.829,44.808z M61.948,37.5c0.794-0.087,1.458-0.177,1.486-0.204c0.079-0.079-0.784-2.578-1.229-3.555c-1.252-2.744-3.058-4.578-4.511-4.578 c-1.624,0-3.393,1.771-4.669,4.678c-0.412,0.94-1.278,3.273-1.278,3.448c0,0.086,1.817,0.285,3.538,0.386 C57.368,37.798,59.813,37.734,61.948,37.5L61.948,37.5z M50.204,35.428c0.509-1.629,1.453-3.673,2.202-4.76 c0.275-0.398,0.467-0.755,0.432-0.792c-0.121-0.12-2.25,0.666-3.498,1.292c-0.665,0.331-1.675,0.934-2.252,1.34 c-1.09,0.768-2.893,2.397-2.893,2.615c0,0.273,4.325,1.714,5.231,1.743C49.699,36.876,49.827,36.641,50.204,35.428z M67.573,36.459 c1.689-0.488,3.459-1.177,3.459-1.343c0-0.212-1.814-1.849-2.891-2.609c-0.575-0.406-1.587-1.01-2.25-1.34 c-1.253-0.628-3.377-1.412-3.499-1.292c-0.037,0.038,0.115,0.313,0.344,0.61c0.615,0.806,1.956,3.728,2.366,5.143 C65.521,37.094,65.46,37.073,67.573,36.459L67.573,36.459z M0.041,27.516L0.081,0h32.463h32.461l0.043,13.135 c0.021,7.225,0,13.134-0.043,13.134c-0.044,0-0.517-0.12-1.045-0.267l-0.963-0.268v-6.319v-6.321H32.544H2.09v19.923v19.925h16.848 h16.849l0.267,0.962c0.148,0.527,0.267,0.997,0.267,1.044c0,0.046-8.172,0.083-18.16,0.083H0L0.041,27.516L0.041,27.516z M9.001,44.509V39.93h2.491h2.49v-3.458v-3.453h9h9v-2.489v-2.492h-3.455h-3.456v-5.542v-5.543h8.035h8.036v5.543v5.542h-3.535 h-3.534v2.492v2.489h3.142h3.144l-0.517,0.719c-1.038,1.449-0.846,1.372-3.446,1.372h-2.323v2.407v2.413h1.125 c0.618,0,1.126,0.056,1.126,0.117c0,0.066-0.177,0.775-0.39,1.568c-0.544,2.019-0.741,3.504-0.748,5.636l-0.01,1.836h-4.09h-4.089 v-4.577V39.93h2.491h2.492v-2.413v-2.406h-7.955H16.07v2.406v2.413h2.491h2.491v4.579v4.577h-6.026h-6.03v-4.577H9.001z"/>  </g><g id="ProcessOnG1027" transform="matrix(1.0,0.0,0.0,1.0,-20.0,74.875)"><text id="ProcessOnText1028" fill="#000000" font-size="13" x="58.0" y="13.325" font-family="微软雅黑" font-weight="normal" font-style="normal" text-decoration="none" family="微软雅黑" text-anchor="middle" size="13">Client Side</text></g></g><g id="ProcessOnG1029" transform="matrix(1.0,0.0,0.0,1.0,584.5,467.0)" opacity="1.0"><g id="ProcessOnG1031" transform="matrix(1.0,0.0,0.0,1.0,0.0,0.0)"> <path fill="#00BCF2" d="M12.072,27.89c-1.647-0.222-3.86-1-5.308-1.865c-3.059-1.828-5.291-4.713-6.35-8.21 C0.04,16.574,0.002,16.229,0,14.022c0-2.856,0.244-4.007,1.339-6.218c1.724-3.49,4.905-6.178,8.618-7.287 c1.836-0.548,4.724-0.681,6.585-0.303c4.466,0.907,8.237,3.947,10.122,8.158l0.525,1.176h24.907H77v4.473v4.476H52.052 c-23.624,0-24.952,0.014-25.036,0.265c-0.777,2.3-2.589,4.76-4.656,6.322C19.406,27.312,15.571,28.358,12.072,27.89L12.072,27.89z" />  </g><g id="ProcessOnG1032" transform="matrix(1.0,0.0,0.0,1.0,-20.0,34.875)"><text id="ProcessOnText1033" fill="#000000" font-size="13" x="57.5" y="13.325" font-family="微软雅黑" font-weight="normal" font-style="normal" text-decoration="none" family="微软雅黑" text-anchor="middle" size="13">API</text></g></g><g id="ProcessOnG1034" transform="matrix(1.0,0.0,0.0,1.0,339.5,320.5)" opacity="1.0"><g id="ProcessOnG1036" transform="matrix(1.0,0.0,0.0,1.0,0.0,0.0)"> <path fill="#00BCF2" d="M8.806,74.709c-3.399-0.89-6.138-3.577-7.121-6.981l-0.338-1.177V37.574c0-23.786,0.035-29.119,0.196-29.782 c0.109-0.445,0.499-1.437,0.865-2.206c0.568-1.195,0.85-1.581,1.936-2.651C5.793,1.503,7.086,0.767,8.981,0.29 c1.139-0.288,1.672-0.293,25.371-0.289l24.21,0.005l7.546,7.459l7.546,7.46l-0.047,25.957L73.56,66.845l-0.344,1.029 c-1.201,3.546-3.737,5.964-7.197,6.847c-1.075,0.277-1.901,0.285-28.625,0.277C10.803,74.991,9.841,74.982,8.806,74.709 L8.806,74.709z M65.301,68.481c0.977-0.481,1.748-1.407,2.002-2.403c0.104-0.422,0.155-8.059,0.155-24.083V18.531l-5.994-0.038 l-5.995-0.039l-0.035-6.141l-0.041-6.139L32.929,6.175L10.465,6.176L9.73,6.519C9.326,6.707,8.75,7.134,8.451,7.465 c-1.076,1.19-1.003-1.008-1.003,30.038c0,30.133-0.039,28.613,0.762,29.796c0.449,0.662,1.292,1.24,2.15,1.472 c0.551,0.148,6.154,0.18,27.388,0.158l26.695-0.025L65.301,68.481L65.301,68.481z M29.161,56.501 c-0.042-0.069,2.204-7.925,4.991-17.457s5.063-17.354,5.063-17.379c0-0.027,0.965-0.049,2.138-0.049s2.131,0.018,2.129,0.037 c0,0.021-2.309,7.879-5.121,17.465l-5.118,17.429l-2.002,0.044C30.141,56.611,29.206,56.57,29.161,56.501L29.161,56.501z M19.371,45.946c-3.677-2.385-6.772-4.412-6.877-4.499c-0.135-0.114-0.191-0.635-0.191-1.804v-1.642l6.781-4.627 c3.729-2.543,6.84-4.648,6.912-4.673c0.075-0.028,0.134,1.028,0.134,2.438v2.487l-4.922,2.999c-2.706,1.651-4.906,3.01-4.889,3.024 c0.015,0.019,2.18,1.267,4.809,2.772c2.63,1.512,4.832,2.794,4.896,2.856c0.06,0.063,0.094,1.217,0.074,2.562l-0.041,2.452 L19.371,45.946L19.371,45.946z M46.899,47.48l0.042-2.52l4.831-2.762l4.831-2.762l-0.788-0.494 c-0.433-0.275-2.623-1.616-4.865-2.981l-4.082-2.482v-2.474c0-1.363,0.031-2.477,0.074-2.477c0.038,0,3.116,2.063,6.838,4.585 l6.767,4.585v1.71v1.707l-6.428,4.188c-3.533,2.3-6.611,4.297-6.845,4.438l-0.413,0.26L46.899,47.48L46.899,47.48z"/>  </g></g><g id="ProcessOnG1037" transform="matrix(1.0,0.0,0.0,1.0,125.5,326.5)" opacity="1.0"><g id="ProcessOnG1039" transform="matrix(1.0,0.0,0.0,1.0,0.0,0.0)"> <path fill="#00BCF2" d="M8.806,74.709c-3.399-0.89-6.138-3.576-7.12-6.982l-0.339-1.178V37.574c0-23.788,0.035-29.12,0.198-29.784 c0.108-0.444,0.498-1.438,0.864-2.206c0.569-1.194,0.85-1.579,1.935-2.649c1.451-1.433,2.742-2.169,4.638-2.647 c1.139-0.287,1.671-0.293,25.372-0.288l24.207,0.005l7.547,7.459l7.545,7.459l-0.045,25.959l-0.045,25.959l-0.348,1.03 c-1.197,3.548-3.736,5.966-7.191,6.849c-1.078,0.276-1.902,0.285-28.629,0.276C10.804,74.992,9.843,74.981,8.806,74.709 L8.806,74.709z M65.301,68.482c0.979-0.48,1.752-1.409,2.004-2.403c0.105-0.421,0.154-8.059,0.154-24.082V18.531l-5.992-0.038 l-5.994-0.039l-0.039-6.14l-0.037-6.141L32.931,6.174L10.466,6.175L9.73,6.518C9.326,6.707,8.751,7.133,8.452,7.464 c-1.074,1.192-1-1.007-1,30.04c0,30.135-0.04,28.611,0.761,29.794c0.449,0.663,1.29,1.24,2.15,1.473 c0.55,0.148,6.154,0.182,27.388,0.159l26.695-0.027L65.301,68.482L65.301,68.482z M29.317,57.202 c-2.224-0.372-4.131-1.375-4.939-2.593c-1.104-1.668-1.333-2.976-1.336-7.621c-0.001-1.942-0.066-3.92-0.144-4.395 c-0.28-1.715-1.146-2.695-2.527-2.864l-0.786-0.096v-2.133v-2.133l0.774-0.095c1.03-0.125,1.725-0.667,2.216-1.728 c0.378-0.814,0.384-0.88,0.477-5.384c0.104-4.998,0.185-5.547,1.05-7.169c1.054-1.978,3.344-3.062,6.968-3.3l1.383-0.091v2.148 v2.148l-0.551,0.092c-1.444,0.243-2.066,0.627-2.573,1.589c-0.299,0.57-0.327,0.886-0.418,4.656 c-0.104,4.266-0.244,5.322-0.896,6.723c-0.349,0.747-1.673,2.161-2.174,2.32c-0.427,0.136-0.372,0.239,0.407,0.748 c2.077,1.361,2.664,3.438,2.672,9.447c0.004,3.152,0.121,3.865,0.76,4.641c0.45,0.546,1.491,0.977,2.358,0.977h0.415v2.134v2.133 l-1.213-0.019C30.574,57.33,29.708,57.269,29.317,57.202L29.317,57.202z M40.104,55.225v-2.134h0.414 c0.686,0,1.861-0.413,2.188-0.769c0.803-0.879,0.836-1.073,0.941-5.556c0.1-4.405,0.209-5.272,0.83-6.597 c0.48-1.027,1.094-1.712,1.996-2.226l0.729-0.417l-0.57-0.295c-1.217-0.627-2.143-1.978-2.639-3.85 c-0.199-0.746-0.275-1.861-0.344-5.074c-0.088-4.04-0.098-4.131-0.457-4.775c-0.467-0.833-1.125-1.275-2.221-1.491l-0.867-0.17 v-2.135v-2.136l1.441,0.095c1.734,0.113,3.367,0.509,4.537,1.101c1,0.504,2.154,1.669,2.557,2.577 c0.682,1.54,0.762,2.191,0.865,6.936c0.084,3.88,0.139,4.647,0.357,5.148c0.504,1.146,1.453,1.838,2.521,1.838h0.523l-0.041,2.168 l-0.041,2.167l-0.68,0.098c-0.857,0.122-1.152,0.281-1.721,0.928c-0.793,0.904-0.908,1.62-0.91,5.661 c0,5.403-0.365,7.203-1.764,8.732c-0.432,0.474-1.082,0.97-1.646,1.256c-1.135,0.576-3.316,1.048-4.861,1.051l-1.139,0.002V55.225 L40.104,55.225z"/>  </g></g><g id="ProcessOnG1040"><path id="ProcessOnPath1041" d="M200.5 364.0L270.0 364.0L270.0 261.0L324.2639320225002 261.0" stroke="#323232" stroke-width="2.0" stroke-dasharray="none" fill="none" marker-end="url(#ProcessOnMarker1042)"/></g><g id="ProcessOnG1044" transform="matrix(1.0,0.0,0.0,1.0,584.5,554.0)" opacity="1.0"><g id="ProcessOnG1046" transform="matrix(1.0,0.0,0.0,1.0,0.0,0.0)"> <path fill="#00BCF2" d="M12.072,27.89c-1.647-0.222-3.86-1-5.308-1.865c-3.059-1.828-5.291-4.713-6.35-8.21 C0.04,16.574,0.002,16.229,0,14.022c0-2.856,0.244-4.007,1.339-6.218c1.724-3.49,4.905-6.178,8.618-7.287 c1.836-0.548,4.724-0.681,6.585-0.303c4.466,0.907,8.237,3.947,10.122,8.158l0.525,1.176h24.907H77v4.473v4.476H52.052 c-23.624,0-24.952,0.014-25.036,0.265c-0.777,2.3-2.589,4.76-4.656,6.322C19.406,27.312,15.571,28.358,12.072,27.89L12.072,27.89z" />  </g><g id="ProcessOnG1047" transform="matrix(1.0,0.0,0.0,1.0,-20.0,34.875)"><text id="ProcessOnText1048" fill="#000000" font-size="13" x="57.5" y="13.325" font-family="微软雅黑" font-weight="normal" font-style="normal" text-decoration="none" family="微软雅黑" text-anchor="middle" size="13">API</text></g></g><g id="ProcessOnG1049" transform="matrix(1.0,0.0,0.0,1.0,584.5,633.0)" opacity="1.0"><g id="ProcessOnG1051" transform="matrix(1.0,0.0,0.0,1.0,0.0,0.0)"> <path fill="#00BCF2" d="M12.072,27.89c-1.647-0.222-3.86-1-5.308-1.865c-3.059-1.828-5.291-4.713-6.35-8.21 C0.04,16.574,0.002,16.229,0,14.022c0-2.856,0.244-4.007,1.339-6.218c1.724-3.49,4.905-6.178,8.618-7.287 c1.836-0.548,4.724-0.681,6.585-0.303c4.466,0.907,8.237,3.947,10.122,8.158l0.525,1.176h24.907H77v4.473v4.476H52.052 c-23.624,0-24.952,0.014-25.036,0.265c-0.777,2.3-2.589,4.76-4.656,6.322C19.406,27.312,15.571,28.358,12.072,27.89L12.072,27.89z" />  </g><g id="ProcessOnG1052" transform="matrix(1.0,0.0,0.0,1.0,-20.0,34.875)"><text id="ProcessOnText1053" fill="#000000" font-size="13" x="57.5" y="13.325" font-family="微软雅黑" font-weight="normal" font-style="normal" text-decoration="none" family="微软雅黑" text-anchor="middle" size="13">API</text></g></g><g id="ProcessOnG1054" transform="matrix(1.0,0.0,0.0,1.0,578.5,703.0)" opacity="1.0"><g id="ProcessOnG1056" transform="matrix(1.0,0.0,0.0,1.0,0.0,0.0)"> <path fill="#00BCF2" d="M12.072,27.89c-1.647-0.222-3.86-1-5.308-1.865c-3.059-1.828-5.291-4.713-6.35-8.21 C0.04,16.574,0.002,16.229,0,14.022c0-2.856,0.244-4.007,1.339-6.218c1.724-3.49,4.905-6.178,8.618-7.287 c1.836-0.548,4.724-0.681,6.585-0.303c4.466,0.907,8.237,3.947,10.122,8.158l0.525,1.176h24.907H77v4.473v4.476H52.052 c-23.624,0-24.952,0.014-25.036,0.265c-0.777,2.3-2.589,4.76-4.656,6.322C19.406,27.312,15.571,28.358,12.072,27.89L12.072,27.89z" />  </g><g id="ProcessOnG1057" transform="matrix(1.0,0.0,0.0,1.0,-20.0,34.875)"><text id="ProcessOnText1058" fill="#000000" font-size="13" x="57.5" y="13.325" font-family="微软雅黑" font-weight="normal" font-style="normal" text-decoration="none" family="微软雅黑" text-anchor="middle" size="13">API</text></g></g><g id="ProcessOnG1059"><path id="ProcessOnPath1060" d="M202.0 579.5L274.0 579.5L274.0 579.0L330.7639320225002 579.0" stroke="#323232" stroke-width="2.0" stroke-dasharray="none" fill="none" marker-end="url(#ProcessOnMarker1061)"/></g><g id="ProcessOnG1063" transform="matrix(1.0,0.0,0.0,1.0,346.0,558.5)" opacity="1.0"><g id="ProcessOnG1065" transform="matrix(1.0,0.0,0.0,1.0,0.0,0.0)"> <path fill="#00BCF2" d="M20.608,0c-0.302,0-0.612,0.157-0.843,0.388L0.362,19.648c-0.013,0.012,0.012,0.05,0,0.064 c-0.096,0.106-0.209,0.198-0.259,0.322c-0.202,0.435-0.101,0.936,0.259,1.293l19.403,19.326c0.462,0.461,1.16,0.461,1.622,0 c0.463-0.462,0.463-1.221,0-1.68L2.827,20.489L21.386,2.003c0.463-0.46,0.463-1.156,0-1.615C21.155,0.157,20.91,0,20.608,0L20.608,0 z M55.455,0c-0.301,0-0.611,0.157-0.842,0.388c-0.463,0.459-0.463,1.155,0,1.615l18.559,18.486L54.613,38.975 c-0.463,0.459-0.463,1.218,0,1.68c0.463,0.461,1.225,0.461,1.689,0L75.639,21.33c0.359-0.358,0.459-0.859,0.262-1.293 c-0.055-0.124-0.166-0.216-0.262-0.322c-0.014-0.015,0.012-0.053,0-0.064L56.303,0.388C56.066,0.157,55.756,0,55.455,0L55.455,0z M23.658,15.319c-2.878,0-5.191,2.303-5.191,5.17c0,2.867,2.313,5.235,5.191,5.235s5.256-2.368,5.256-5.235 C28.914,17.622,26.537,15.319,23.658,15.319z M38,15.319c-2.878,0-5.192,2.303-5.192,5.17c0,2.867,2.314,5.235,5.192,5.235 c2.879,0,5.192-2.368,5.192-5.235C43.191,17.622,40.879,15.319,38,15.319z M52.34,15.319c-2.879,0-5.191,2.303-5.191,5.17 c0,2.867,2.313,5.235,5.191,5.235c2.881,0,5.191-2.368,5.191-5.235C57.531,17.622,55.221,15.319,52.34,15.319z"/>  </g><g id="ProcessOnG1066" transform="matrix(1.0,0.0,0.0,1.0,-20.0,47.875)"><text id="ProcessOnText1067" fill="#000000" font-size="13" x="57.0" y="13.325" font-family="微软雅黑" font-weight="normal" font-style="normal" text-decoration="none" family="微软雅黑" text-anchor="middle" size="13">Proxy</text></g></g><g id="ProcessOnG1068" transform="matrix(1.0,0.0,0.0,1.0,493.0,460.0)" opacity="1.0"><g id="ProcessOnG1070" transform="matrix(0.9958333333333333,0.0,0.0,1.1875,0.0,0.0)"> <g> <path fill="none" stroke="#000000" stroke-width="2" stroke-miterlimit="10" d="M239,200.931C239,221.987,221.985,239,200.904,239 H39.094c-21.027,0-38.091-17.007-38.091-38.069V39.26c0-21.015,17.059-38.056,38.091-38.056h161.81 C221.979,1.205,239,18.247,239,39.26V200.931z"/> <path fill="none" stroke="#EB1F26" stroke-miterlimit="10" stroke-dasharray="4,2.5" d="M239,200.74 c0,21.018-17.044,38.053-38.082,38.053H39.08C18.055,238.793,1,221.762,1,200.74V39.044C1,18.037,18.052,1,39.08,1h161.838 C221.952,1,239,18.037,239,39.044V200.74z"/> </g>  </g></g><g id="ProcessOnG1071"><path id="ProcessOnPath1072" d="M422.0 579.0L457.5 579.0L457.5 602.5L477.7639320225002 602.5" stroke="#323232" stroke-width="2.0" stroke-dasharray="none" fill="none" marker-end="url(#ProcessOnMarker1073)"/></g><g id="ProcessOnG1075" transform="matrix(1.0,0.0,0.0,1.0,790.5,613.5)" opacity="1.0"><g id="ProcessOnG1077" transform="matrix(0.146484375,0.0,0.0,0.146484375,0.0,0.0)"> <g> <path fill="#4BECBC" d="M499.037,101.813c-10.847-62.461-25.838-77.337-89.152-88.42c-40.31-7.053-97.21-11.098-156.091-11.098 c-58.363,0-112.338,3.801-151.978,10.687c-62.468,10.855-77.345,25.853-88.405,89.152c-14.663,83.819-14.884,224.882-0.48,308.031 c10.817,62.461,25.815,77.329,89.152,88.42c40.409,7.069,97.431,11.121,156.434,11.121h0.009 c58.218,0,112.087-3.778,151.665-10.634c62.476-10.862,77.359-25.854,88.404-89.167 C513.266,326.071,513.464,184.977,499.037,101.813 M483.24,407.222c-9.918,56.764-19.82,66.772-75.715,76.492 c-38.727,6.703-91.636,10.39-149,10.39h-0.009c-58.148,0-114.181-3.961-153.745-10.877c-56.786-9.947-66.795-19.865-76.469-75.715 c-14.153-81.702-13.939-220.319,0.48-302.699c9.918-56.748,19.82-66.757,75.7-76.461c38.794-6.741,91.817-10.458,149.312-10.458 c58.012,0,113.938,3.961,153.41,10.868c56.748,9.933,66.757,19.843,76.477,75.715C497.85,186.186,497.652,324.819,483.24,407.222" /> <polygon fill="#4BECBC" points="254.525,143.766 296.412,157.403 321.646,142.856 255.02,118.531 188.904,142.25 214.649,157.403 "/> <polygon fill="#4BECBC" points="255.02,222.658 213.133,209.02 187.899,223.567 254.525,247.892 320.641,224.157 294.897,209.02 "/> <polygon fill="#4BECBC" points="194.264,202.321 146.507,183.148 194.455,165.698 168.711,150.481 80.391,183.148 167.195,215.448 "/> <polygon fill="#4BECBC" points="364.506,183.148 316.733,202.321 343.802,215.448 430.621,183.148 342.286,150.481 316.542,165.698 "/> <polygon fill="#4BECBC" points="255.02,298.456 430.286,230.904 430.286,195.877 255.02,263.635 79.753,195.111 80.136,229.884 "/> <polygon fill="#4BECBC" points="80.136,243.107 80.503,277.879 255.403,346.451 430.669,278.9 430.669,243.872 255.403,311.631 "/> <polygon fill="#4BECBC" points="80.136,291.517 80.503,326.274 255.403,394.862 430.669,327.311 430.669,292.267 255.403,360.026 "/> </g>  </g><g id="ProcessOnG1078" transform="matrix(1.0,0.0,0.0,1.0,-20.0,81.875)"><text id="ProcessOnText1079" fill="#000000" font-size="13" x="56.5" y="13.325" font-family="微软雅黑" font-weight="normal" font-style="normal" text-decoration="none" family="微软雅黑" text-anchor="middle" size="13">Redis</text></g></g><g id="ProcessOnG1080"><path id="ProcessOnPath1081" d="M865.5 651.0L904.0 651.0L904.0 758.0L927.2639320225002 758.0" stroke="#323232" stroke-width="2.0" stroke-dasharray="none" fill="none" marker-end="url(#ProcessOnMarker1082)"/></g><g id="ProcessOnG1084"><path id="ProcessOnPath1085" d="M732.0 602.5L761.25 602.5L761.25 651.0L775.2639320225002 651.0" stroke="#323232" stroke-width="2.0" stroke-dasharray="none" fill="none" marker-end="url(#ProcessOnMarker1086)"/></g></g></g></svg>